# xmcd
#
# Track frame offsets:
# 150
# 10650
# 29744
# 45237
# 60908
# 78558
# 94339
# 107779
# 123160
# 139576
# 155059
# 170680
#
# Disc length: 2436 seconds
#
#
# Revision: 0
# Processed by: cddbd v1.5PL3 Copyright (c) Steve Scherf et al.
# Submitted via: FreeRIP 2.60 
#
DISCID=9509820c
DTITLE=Alan Gerber - Fools That Try
DYEAR=1997
DGENRE=Blues
TTITLE0=White Lightning Blues
TTITLE1=Stay at Home
TTITLE2=Henry the Hog Farmer
TTITLE3=Party Goin' On
TTITLE4=Believe
TTITLE5=Sweet Micheline
TTITLE6=66 Chevy
TTITLE7=Above the Blue
TTITLE8=Corina
TTITLE9=Hard Times
TTITLE10=On the Farm
TTITLE11=Fools that Try
EXTD=
EXTT0=
EXTT1=
EXTT2=
EXTT3=
EXTT4=
EXTT5=
EXTT6=
EXTT7=
EXTT8=
EXTT9=
EXTT10=
EXTT11=
PLAYORDER=
